<?xml version="1.0" encoding="UTF-8"?>
<!DOCTYPE svg PUBLIC "-//W3C//DTD SVG 1.1 Tiny//EN" "http://www.w3.org/Graphics/SVG/1.1/DTD/svg11-tiny.dtd">
<svg baseProfile="tiny" xmlns="http://www.w3.org/2000/svg" xmlns:xlink="http://www.w3.org/1999/xlink" width="100%" height="100%" viewBox="0 0 88 87.999">
<metadata/>
<defs>
<linearGradient>
<stop style="stop-color:#d1d4ea;" offset="0"/>
<stop style="stop-color:#595497;" offset="1"/>
</linearGradient>
<linearGradient id="linearGradient5085">
<stop offset="0" style="stop-color:#0048ff;"/>
<stop offset="1" style="stop-color:#bef185;"/>
</linearGradient>
<linearGradient id="linearGradient4204">
<stop offset="0" style="stop-color:#d1d3d7;"/>
<stop offset="1" style="stop-color:#dfd0ff;"/>
</linearGradient>
<linearGradient id="linearGradient3313">
<stop style="stop-color:#fefeff;" offset="0"/>
<stop style="stop-color:#ced0e1;" offset="1"/>
</linearGradient>
<linearGradient xlink:href="#linearGradient4204" id="linearGradient4202" x1="32.799301" y1="42.356796" x2="51.031834" y2="32.251705" gradientUnits="userSpaceOnUse"/>
<linearGradient xlink:href="#linearGradient3313" id="linearGradient6843" x1="6.1914096" y1="43.758389" x2="77.751411" y2="43.758389" gradientUnits="userSpaceOnUse"/>
<linearGradient xlink:href="#linearGradient5085" id="linearGradient2210" x1="6.1914096" y1="43.758389" x2="77.751411" y2="43.758389" gradientUnits="userSpaceOnUse"/>
</defs>
<g>
<g>
<g>
<g>
<rect width="88" height="87.999" fill="none"/>
</g>
</g>
<path style="fill:url(#linearGradient6843);fill-opacity:1.0;fill-rule:evenodd;stroke:#000000;stroke-width:1px;stroke-linecap:butt;stroke-linejoin:miter;stroke-opacity:1;opacity:1" d="M 77.251414,55.648864 L 52.56905,57.095757 L 39.768157,78.248765 L 30.76481,55.221557 L 6.6914095,49.583822 L 25.809399,33.905332 L 23.732113,9.268012 L 44.551027,22.60538 L 67.340594,13.016414 L 61.089401,36.937851 L 77.251414,55.648864 z "/>
<path style="fill:url(#linearGradient4202);fill-opacity:1.0;fill-rule:evenodd;stroke:#000000;stroke-width:1px;stroke-linecap:butt;stroke-linejoin:miter;stroke-opacity:1;opacity:1" d="M 77.251414,55.648864 L 52.56905,57.095757 L 39.768157,78.248765 L 30.76481,55.221557 L 6.6914095,49.583822 L 25.809399,33.905332 L 23.732113,9.268012 L 44.551027,22.60538 L 67.340594,13.016414 L 61.089401,36.937851 L 77.251414,55.648864 z " transform="matrix(0.804741,0,0,0.804716,8.25329,8.305422)"/>
<path style="fill:url(#linearGradient2210);fill-opacity:1.0;fill-rule:evenodd;stroke:#000000;stroke-width:0.99993167;stroke-linecap:butt;stroke-linejoin:miter;stroke-opacity:1;opacity:1;stroke-miterlimit:4;stroke-dasharray:none" d="M 77.251414,55.648864 L 52.56905,57.095757 L 39.768157,78.248765 L 30.76481,55.221557 L 6.6914095,49.583822 L 25.809399,33.905332 L 23.732113,9.268012 L 44.551027,22.60538 L 67.340594,13.016414 L 61.089401,36.937851 L 77.251414,55.648864 z " transform="matrix(0.600065,0,0,0.600017,16.86277,16.88226)"/>
</g>
</g>
</svg>
